<svg xmlns="http://www.w3.org/2000/svg" xmlns:xlink="http://www.w3.org/1999/xlink" width="500" zoomAndPan="magnify" viewBox="0 0 375 89.999999" height="120" preserveAspectRatio="xMidYMid meet" version="1.0"><defs><g/></defs><rect x="-37.5" width="450" fill="#ffffff" y="-9" height="107.999999" fill-opacity="1"/><rect x="-37.5" width="450" fill="#ffffff" y="-9" height="107.999999" fill-opacity="1"/><g fill="#545454" fill-opacity="1"><g transform="translate(18.616998, 65.021441)"><g><path d="M 37.257812 -31.753906 C 34.046875 -35.15625 29.539062 -37.296875 24.339844 -37.296875 C 20.328125 -37.296875 16.621094 -35.765625 13.679688 -33.246094 L 13.679688 -44.824219 C 13.679688 -46.082031 13.144531 -47.230469 12.34375 -48.03125 C 11.539062 -48.835938 10.394531 -49.332031 9.171875 -49.332031 C 7.910156 -49.332031 6.761719 -48.835938 5.960938 -48.03125 C 5.160156 -47.230469 4.660156 -46.082031 4.660156 -44.824219 L 4.660156 -2.023438 C 4.660156 -0.382812 5.464844 0.421875 7.109375 0.421875 C 8.980469 0.421875 10.46875 -0.839844 11.082031 -4.011719 L 11.539062 -5.425781 C 11.617188 -5.3125 11.730469 -5.234375 11.808594 -5.121094 C 14.828125 -1.71875 19.144531 0.421875 24.339844 0.421875 C 29.539062 0.421875 34.046875 -1.71875 37.257812 -5.121094 C 40.464844 -8.519531 42.414062 -13.257812 42.414062 -18.457031 C 42.414062 -23.652344 40.464844 -28.351562 37.257812 -31.753906 Z M 30.492188 -11.273438 C 28.734375 -9.4375 26.289062 -8.292969 23.539062 -8.292969 C 20.789062 -8.292969 18.34375 -9.4375 16.546875 -11.273438 C 14.75 -13.105469 13.679688 -15.667969 13.679688 -18.457031 C 13.679688 -21.207031 14.75 -23.769531 16.546875 -25.601562 C 18.34375 -27.4375 20.789062 -28.582031 23.539062 -28.582031 C 26.289062 -28.582031 28.734375 -27.4375 30.492188 -25.601562 C 32.25 -23.769531 33.320312 -21.207031 33.320312 -18.457031 C 33.320312 -15.667969 32.25 -13.105469 30.492188 -11.273438 Z M 30.492188 -11.273438 "/></g></g></g><g fill="#ffc017" fill-opacity="1"><g transform="translate(55.641915, 24.748994)"><g><path d="M 1.929688 -4.070312 C 1.929688 -2.785156 2.394531 -1.714844 3.214844 -0.929688 C 4.035156 -0.144531 5.144531 0.355469 6.429688 0.355469 C 7.679688 0.355469 8.785156 -0.144531 9.640625 -0.929688 C 10.464844 -1.714844 10.964844 -2.785156 10.964844 -4.070312 C 10.964844 -5.320312 10.464844 -6.464844 9.640625 -7.25 C 8.785156 -8.035156 7.679688 -8.5 6.429688 -8.5 C 5.144531 -8.5 4.035156 -8.035156 3.214844 -7.25 C 2.394531 -6.464844 1.929688 -5.320312 1.929688 -4.070312 Z M 1.929688 -4.070312 "/></g></g></g><g fill="#ffc017" fill-opacity="1"><g transform="translate(71.7191, 64.786786)"><g><path d="M 41.324219 -19.511719 C 40.386719 -21.667969 39.164062 -23.179688 38.046875 -24.046875 C 37.507812 -24.441406 37.113281 -24.695312 36.894531 -24.800781 C 37.039062 -24.875 37.292969 -25.089844 37.617188 -25.449219 C 37.941406 -25.773438 38.265625 -26.242188 38.625 -26.816406 C 39.308594 -27.96875 39.957031 -29.554688 40.0625 -31.460938 C 40.171875 -33.1875 39.992188 -34.808594 39.597656 -36.285156 C 38.769531 -39.414062 36.96875 -41.863281 34.554688 -43.589844 C 32.109375 -45.285156 29.121094 -46.21875 25.953125 -46.21875 L 7.847656 -46.21875 C 6.441406 -46.21875 5.617188 -45.96875 5.113281 -45.570312 C 4.609375 -45.140625 4.425781 -44.5625 4.425781 -43.878906 C 4.425781 -43.265625 4.535156 -42.621094 4.714844 -41.898438 L 4.714844 -41.792969 L 4.75 -41.574219 C 4.789062 -41.324219 4.859375 -41.070312 4.894531 -40.820312 C 4.929688 -40.566406 4.96875 -40.316406 4.96875 -40.0625 L 4.96875 -5.398438 C 4.96875 -3.851562 5.472656 -2.410156 6.40625 -1.296875 C 7.34375 -0.179688 8.746094 0.539062 10.617188 0.539062 L 26.671875 0.539062 C 30.273438 0.539062 33.65625 -0.613281 36.355469 -2.664062 C 39.054688 -4.714844 41.070312 -7.703125 41.792969 -11.304688 C 42.476562 -14.148438 42.257812 -17.351562 41.324219 -19.511719 Z M 16.054688 -36.390625 L 25.59375 -36.390625 C 26.601562 -36.390625 27.574219 -35.996094 28.292969 -35.277344 C 29.011719 -34.554688 29.480469 -33.585938 29.480469 -32.433594 C 29.480469 -31.316406 29.050781 -30.34375 28.363281 -29.625 C 27.644531 -28.90625 26.671875 -28.4375 25.664062 -28.4375 L 16.054688 -28.4375 Z M 29.480469 -11.121094 C 28.507812 -10.257812 27.214844 -9.828125 26.023438 -9.828125 L 16.054688 -9.828125 L 16.054688 -19.761719 L 26.023438 -19.761719 C 27.320312 -19.761719 28.546875 -19.328125 29.515625 -18.503906 C 30.488281 -17.636719 31.101562 -16.378906 31.101562 -14.757812 C 31.101562 -13.175781 30.453125 -11.949219 29.480469 -11.121094 Z M 29.480469 -11.121094 "/></g></g></g><g fill="#ffc017" fill-opacity="1"><g transform="translate(115.703973, 64.786786)"><g><path d="M 3.886719 -5.113281 C 3.886719 -3.527344 4.5 -2.125 5.507812 -1.117188 C 6.515625 -0.0703125 7.957031 0.539062 9.539062 0.539062 C 11.085938 0.539062 12.492188 -0.0703125 13.535156 -1.117188 C 14.542969 -2.125 15.191406 -3.527344 15.191406 -5.113281 L 15.191406 -40.929688 C 15.191406 -42.511719 14.542969 -43.914062 13.535156 -44.921875 C 12.492188 -45.929688 11.085938 -46.578125 9.539062 -46.578125 C 7.957031 -46.578125 6.515625 -45.929688 5.507812 -44.921875 C 4.5 -43.914062 3.886719 -42.511719 3.886719 -40.929688 Z M 3.886719 -5.113281 "/></g></g></g><g fill="#ffc017" fill-opacity="1"><g transform="translate(134.780884, 64.786786)"><g><path d="M 2.195312 -17.421875 C 2.195312 -12.492188 4.210938 -7.992188 7.488281 -4.75 C 10.761719 -1.511719 15.261719 0.539062 20.15625 0.539062 C 25.089844 0.539062 29.625 -1.511719 32.863281 -4.75 C 36.105469 -7.992188 38.121094 -12.492188 38.121094 -17.421875 C 38.121094 -22.316406 36.105469 -26.851562 32.863281 -30.09375 C 29.625 -33.332031 25.089844 -35.347656 20.15625 -35.347656 C 15.261719 -35.347656 10.761719 -33.332031 7.488281 -30.09375 C 4.210938 -26.851562 2.195312 -22.316406 2.195312 -17.421875 Z M 13.535156 -17.421875 C 13.535156 -19.292969 14.253906 -21.023438 15.441406 -22.28125 C 16.628906 -23.542969 18.285156 -24.332031 20.15625 -24.332031 C 22.03125 -24.332031 23.683594 -23.542969 24.875 -22.28125 C 26.0625 -21.023438 26.78125 -19.292969 26.78125 -17.421875 C 26.78125 -15.550781 26.0625 -13.785156 24.875 -12.527344 C 23.683594 -11.230469 22.03125 -10.4375 20.15625 -10.4375 C 18.285156 -10.4375 16.628906 -11.230469 15.441406 -12.527344 C 14.253906 -13.785156 13.535156 -15.550781 13.535156 -17.421875 Z M 13.535156 -17.421875 "/></g></g></g><g fill="#ffc017" fill-opacity="1"><g transform="translate(175.130346, 64.786786)"><g><path d="M 21.707031 4.714844 C 20.410156 4.714844 19.402344 4.570312 18.539062 4.390625 C 17.675781 4.246094 16.917969 4.105469 16.054688 3.996094 C 14.792969 3.960938 13.644531 4.390625 12.777344 5.148438 C 11.914062 5.902344 11.375 7.019531 11.375 8.316406 C 11.375 12.597656 15.296875 14.613281 21.886719 14.613281 C 25.808594 14.613281 29.949219 13.28125 33.042969 10.402344 C 36.140625 7.523438 38.226562 3.09375 38.226562 -3.203125 L 38.226562 -30.632812 C 38.226562 -31.820312 38.011719 -33.007812 37.472656 -33.871094 C 36.894531 -34.738281 36.066406 -35.3125 34.917969 -35.3125 C 32.902344 -35.3125 31.171875 -33.367188 30.703125 -30.453125 C 29.371094 -31.75 27.609375 -32.972656 25.59375 -33.871094 C 23.542969 -34.773438 21.273438 -35.347656 18.933594 -35.347656 C 14.039062 -35.347656 9.863281 -33.332031 6.949219 -30.058594 C 4.03125 -26.78125 2.304688 -22.316406 2.304688 -17.386719 C 2.304688 -12.453125 4.03125 -7.957031 6.949219 -4.714844 C 9.863281 -1.476562 14.039062 0.574219 18.933594 0.574219 C 20.949219 0.574219 22.859375 0.0351562 24.441406 -0.757812 C 25.988281 -1.546875 27.140625 -2.589844 27.609375 -3.636719 C 27.789062 -1.152344 27.320312 0.898438 26.3125 2.339844 C 25.304688 3.816406 23.722656 4.679688 21.707031 4.714844 Z M 13.644531 -17.386719 C 13.644531 -19.257812 14.289062 -21.023438 15.441406 -22.28125 C 16.558594 -23.542969 18.140625 -24.332031 20.015625 -24.332031 C 21.886719 -24.332031 23.578125 -23.542969 24.835938 -22.28125 C 26.097656 -20.984375 26.890625 -19.257812 26.890625 -17.386719 C 26.890625 -15.515625 26.132812 -13.75 24.875 -12.492188 C 23.613281 -11.195312 21.886719 -10.402344 20.015625 -10.402344 C 18.140625 -10.402344 16.558594 -11.195312 15.441406 -12.492188 C 14.289062 -13.75 13.644531 -15.515625 13.644531 -17.386719 Z M 13.644531 -17.386719 "/></g></g></g><g fill="#545454" fill-opacity="1"><g transform="translate(217.793315, 64.786786)"><g><path d="M 28.363281 -31.53125 C 29.949219 -31.53125 31.28125 -31.820312 32.253906 -32.539062 C 33.222656 -33.261719 33.800781 -34.414062 33.800781 -36.140625 C 33.800781 -38.011719 32.828125 -39.777344 31.28125 -41.25 C 29.734375 -42.726562 27.644531 -43.988281 25.449219 -44.851562 C 23.253906 -45.679688 20.914062 -46.183594 18.898438 -46.183594 C 13.964844 -46.183594 9.933594 -44.816406 7.128906 -42.476562 C 4.320312 -40.136719 2.734375 -36.789062 2.734375 -32.792969 C 2.734375 -31.101562 3.023438 -29.589844 3.636719 -28.257812 C 4.789062 -25.628906 6.730469 -23.542969 9.179688 -21.957031 C 11.625 -20.375 14.253906 -19.113281 16.703125 -18.070312 C 17.925781 -17.53125 19.007812 -17.027344 19.976562 -16.558594 C 21.851562 -15.550781 23.144531 -14.578125 23.144531 -13.390625 C 23.144531 -12.238281 22.460938 -11.410156 21.488281 -10.871094 C 20.519531 -10.296875 19.222656 -10.007812 18.035156 -10.007812 C 16.882812 -10.007812 15.550781 -10.296875 14.363281 -10.835938 C 13.175781 -11.375 12.09375 -12.023438 11.410156 -12.851562 C 9.574219 -14.398438 7.992188 -15.226562 6.371094 -15.226562 C 4.789062 -15.226562 3.5625 -14.613281 2.734375 -13.644531 C 1.871094 -12.671875 1.476562 -11.304688 1.511719 -9.863281 C 1.765625 -7.558594 3.132812 -4.929688 5.796875 -2.914062 C 8.460938 -0.863281 12.453125 0.613281 18.035156 0.613281 C 21.8125 0.613281 26.097656 -0.539062 29.445312 -2.878906 C 32.792969 -5.183594 35.203125 -8.640625 35.203125 -13.355469 C 35.203125 -14.972656 34.878906 -16.449219 34.269531 -17.746094 C 33.007812 -20.300781 30.957031 -22.390625 28.363281 -24.007812 C 25.738281 -25.628906 23 -26.996094 20.410156 -28.183594 C 19.078125 -28.761719 17.925781 -29.335938 16.917969 -29.914062 C 14.902344 -31.027344 13.535156 -32.109375 13.535156 -33.511719 C 13.535156 -34.484375 14.148438 -35.277344 15.011719 -35.78125 C 15.875 -36.285156 16.988281 -36.535156 18 -36.535156 C 19.90625 -36.535156 21.453125 -35.347656 23.433594 -33.476562 C 24.441406 -32.613281 25.269531 -32.109375 26.023438 -31.855469 C 26.78125 -31.570312 27.539062 -31.53125 28.363281 -31.53125 Z M 28.363281 -31.53125 "/></g></g></g><g fill="#545454" fill-opacity="1"><g transform="translate(254.975293, 64.786786)"><g><path d="M 35.097656 -30.09375 C 32.109375 -33.332031 27.898438 -35.347656 22.964844 -35.347656 C 18.320312 -35.347656 14.507812 -33.546875 11.769531 -30.597656 L 11.519531 -31.246094 C 10.691406 -33.945312 9.179688 -35.347656 7.019531 -35.347656 C 4.929688 -35.347656 3.886719 -34.304688 3.886719 -32.253906 L 3.886719 6.300781 C 3.886719 7.917969 4.5 9.324219 5.507812 10.332031 C 6.515625 11.339844 7.957031 11.949219 9.539062 11.949219 C 11.085938 11.949219 12.492188 11.339844 13.535156 10.332031 C 14.542969 9.324219 15.191406 7.917969 15.191406 6.300781 L 15.191406 -1.980469 C 17.566406 -0.394531 20.265625 0.539062 22.964844 0.539062 C 27.898438 0.539062 32.109375 -1.511719 35.097656 -4.75 C 38.085938 -7.992188 39.8125 -12.492188 39.8125 -17.421875 C 39.8125 -22.316406 38.085938 -26.851562 35.097656 -30.09375 Z M 26.601562 -12.527344 C 25.414062 -11.230469 23.722656 -10.4375 21.851562 -10.4375 C 19.976562 -10.4375 18.320312 -11.230469 17.132812 -12.527344 C 15.945312 -13.785156 15.226562 -15.550781 15.226562 -17.421875 C 15.226562 -19.292969 15.945312 -21.023438 17.132812 -22.28125 C 18.320312 -23.542969 19.976562 -24.332031 21.851562 -24.332031 C 23.722656 -24.332031 25.414062 -23.542969 26.601562 -22.28125 C 27.789062 -21.023438 28.507812 -19.292969 28.507812 -17.421875 C 28.507812 -15.550781 27.789062 -13.785156 26.601562 -12.527344 Z M 26.601562 -12.527344 "/></g></g></g><g fill="#545454" fill-opacity="1"><g transform="translate(296.980486, 64.786786)"><g><path d="M 2.195312 -17.421875 C 2.195312 -12.492188 4.210938 -7.992188 7.488281 -4.75 C 10.761719 -1.511719 15.261719 0.539062 20.15625 0.539062 C 25.089844 0.539062 29.625 -1.511719 32.863281 -4.75 C 36.105469 -7.992188 38.121094 -12.492188 38.121094 -17.421875 C 38.121094 -22.316406 36.105469 -26.851562 32.863281 -30.09375 C 29.625 -33.332031 25.089844 -35.347656 20.15625 -35.347656 C 15.261719 -35.347656 10.761719 -33.332031 7.488281 -30.09375 C 4.210938 -26.851562 2.195312 -22.316406 2.195312 -17.421875 Z M 13.535156 -17.421875 C 13.535156 -19.292969 14.253906 -21.023438 15.441406 -22.28125 C 16.628906 -23.542969 18.285156 -24.332031 20.15625 -24.332031 C 22.03125 -24.332031 23.683594 -23.542969 24.875 -22.28125 C 26.0625 -21.023438 26.78125 -19.292969 26.78125 -17.421875 C 26.78125 -15.550781 26.0625 -13.785156 24.875 -12.527344 C 23.683594 -11.230469 22.03125 -10.4375 20.15625 -10.4375 C 18.285156 -10.4375 16.628906 -11.230469 15.441406 -12.527344 C 14.253906 -13.785156 13.535156 -15.550781 13.535156 -17.421875 Z M 13.535156 -17.421875 "/></g></g></g><g fill="#545454" fill-opacity="1"><g transform="translate(337.329949, 64.786786)"><g><path d="M 26.023438 -33.476562 C 25.015625 -34.449219 23.648438 -35.058594 22.101562 -35.058594 L 19.90625 -35.058594 L 19.90625 -40.929688 C 19.90625 -42.511719 19.257812 -43.914062 18.25 -44.921875 C 17.242188 -45.929688 15.839844 -46.578125 14.289062 -46.578125 C 12.671875 -46.578125 11.265625 -45.929688 10.257812 -44.921875 C 9.25 -43.914062 8.640625 -42.511719 8.640625 -40.929688 L 8.640625 -35.058594 L 6.625 -35.058594 C 5.039062 -35.058594 3.671875 -34.449219 2.699219 -33.476562 C 1.691406 -32.46875 1.117188 -31.101562 1.117188 -29.515625 C 1.117188 -28.042969 1.691406 -26.671875 2.699219 -25.664062 C 3.671875 -24.65625 5.039062 -24.046875 6.625 -24.046875 L 8.640625 -24.046875 L 8.640625 -5.113281 C 8.640625 -3.527344 9.25 -2.125 10.257812 -1.117188 C 11.265625 -0.0703125 12.671875 0.539062 14.289062 0.539062 C 15.839844 0.539062 17.242188 -0.0703125 18.25 -1.117188 C 19.257812 -2.125 19.90625 -3.527344 19.90625 -5.113281 L 19.90625 -24.046875 L 22.101562 -24.046875 C 23.648438 -24.046875 25.015625 -24.65625 26.023438 -25.664062 C 26.996094 -26.671875 27.609375 -28.042969 27.609375 -29.515625 C 27.609375 -31.101562 26.996094 -32.46875 26.023438 -33.476562 Z M 26.023438 -33.476562 "/></g></g></g></svg>