<svg xmlns="http://www.w3.org/2000/svg" xmlns:xlink="http://www.w3.org/1999/xlink" width="500" zoomAndPan="magnify" viewBox="0 0 375 374.999991" height="500" preserveAspectRatio="xMidYMid meet" version="1.0"><defs><g/></defs><g fill="#545454" fill-opacity="1"><g transform="translate(6.952304, 178.263319)"><g><path d="M 38.746094 -33.023438 C 35.410156 -36.5625 30.71875 -38.789062 25.316406 -38.789062 C 21.140625 -38.789062 17.289062 -37.199219 14.226562 -34.574219 L 14.226562 -46.617188 C 14.226562 -47.929688 13.671875 -49.121094 12.835938 -49.953125 C 12 -50.789062 10.808594 -51.304688 9.539062 -51.304688 C 8.226562 -51.304688 7.035156 -50.789062 6.199219 -49.953125 C 5.363281 -49.121094 4.847656 -47.929688 4.847656 -46.617188 L 4.847656 -2.105469 C 4.847656 -0.398438 5.683594 0.4375 7.390625 0.4375 C 9.339844 0.4375 10.890625 -0.875 11.523438 -4.171875 L 12 -5.644531 C 12.082031 -5.523438 12.199219 -5.445312 12.28125 -5.324219 C 15.417969 -1.789062 19.910156 0.4375 25.316406 0.4375 C 30.71875 0.4375 35.410156 -1.789062 38.746094 -5.324219 C 42.085938 -8.863281 44.113281 -13.789062 44.113281 -19.195312 C 44.113281 -24.601562 42.085938 -29.488281 38.746094 -33.023438 Z M 31.714844 -11.722656 C 29.886719 -9.816406 27.34375 -8.625 24.480469 -8.625 C 21.621094 -8.625 19.074219 -9.816406 17.207031 -11.722656 C 15.339844 -13.632812 14.226562 -16.292969 14.226562 -19.195312 C 14.226562 -22.054688 15.339844 -24.71875 17.207031 -26.625 C 19.074219 -28.535156 21.621094 -29.726562 24.480469 -29.726562 C 27.34375 -29.726562 29.886719 -28.535156 31.714844 -26.625 C 33.542969 -24.71875 34.65625 -22.054688 34.65625 -19.195312 C 34.65625 -16.292969 33.542969 -13.632812 31.714844 -11.722656 Z M 31.714844 -11.722656 "/></g></g></g><g fill="#ffc017" fill-opacity="1"><g transform="translate(45.458786, 136.37937)"><g><path d="M 2.003906 -4.234375 C 2.003906 -2.898438 2.488281 -1.78125 3.34375 -0.964844 C 4.195312 -0.148438 5.347656 0.371094 6.683594 0.371094 C 7.984375 0.371094 9.136719 -0.148438 10.027344 -0.964844 C 10.882812 -1.78125 11.402344 -2.898438 11.402344 -4.234375 C 11.402344 -5.535156 10.882812 -6.722656 10.027344 -7.539062 C 9.136719 -8.355469 7.984375 -8.839844 6.683594 -8.839844 C 5.347656 -8.839844 4.195312 -8.355469 3.34375 -7.539062 C 2.488281 -6.722656 2.003906 -5.535156 2.003906 -4.234375 Z M 2.003906 -4.234375 "/></g></g></g><g fill="#ffc017" fill-opacity="1"><g transform="translate(62.17968, 177.56826)"><g><path d="M 42.976562 -20.289062 C 42.003906 -22.535156 40.730469 -24.109375 39.570312 -25.007812 C 39.007812 -25.417969 38.597656 -25.679688 38.371094 -25.792969 C 38.523438 -25.867188 38.785156 -26.09375 39.121094 -26.46875 C 39.457031 -26.804688 39.792969 -27.292969 40.167969 -27.890625 C 40.878906 -29.089844 41.554688 -30.734375 41.667969 -32.71875 C 41.777344 -34.515625 41.589844 -36.199219 41.179688 -37.734375 C 40.320312 -40.992188 38.445312 -43.539062 35.9375 -45.335938 C 33.394531 -47.09375 30.285156 -48.066406 26.992188 -48.066406 L 8.160156 -48.066406 C 6.699219 -48.066406 5.839844 -47.804688 5.316406 -47.394531 C 4.792969 -46.945312 4.605469 -46.347656 4.605469 -45.636719 C 4.605469 -45 4.71875 -44.324219 4.902344 -43.574219 L 4.902344 -43.464844 L 4.941406 -43.238281 C 4.980469 -42.976562 5.054688 -42.714844 5.089844 -42.453125 C 5.128906 -42.191406 5.167969 -41.929688 5.167969 -41.667969 L 5.167969 -5.617188 C 5.167969 -4.003906 5.691406 -2.507812 6.664062 -1.347656 C 7.636719 -0.1875 9.097656 0.5625 11.042969 0.5625 L 27.742188 0.5625 C 31.484375 0.5625 35.003906 -0.636719 37.8125 -2.769531 C 40.617188 -4.902344 42.714844 -8.011719 43.464844 -11.753906 C 44.175781 -14.710938 43.949219 -18.042969 42.976562 -20.289062 Z M 16.695312 -37.847656 L 26.617188 -37.847656 C 27.664062 -37.847656 28.675781 -37.4375 29.425781 -36.6875 C 30.171875 -35.9375 30.660156 -34.929688 30.660156 -33.730469 C 30.660156 -32.570312 30.210938 -31.558594 29.5 -30.808594 C 28.75 -30.0625 27.742188 -29.574219 26.691406 -29.574219 L 16.695312 -29.574219 Z M 30.660156 -11.566406 C 29.648438 -10.667969 28.300781 -10.21875 27.066406 -10.21875 L 16.695312 -10.21875 L 16.695312 -20.550781 L 27.066406 -20.550781 C 28.414062 -20.550781 29.6875 -20.101562 30.699219 -19.242188 C 31.707031 -18.34375 32.34375 -17.035156 32.34375 -15.347656 C 32.34375 -13.703125 31.671875 -12.429688 30.660156 -11.566406 Z M 30.660156 -11.566406 "/></g></g></g><g fill="#ffc017" fill-opacity="1"><g transform="translate(107.925969, 177.56826)"><g><path d="M 4.042969 -5.316406 C 4.042969 -3.667969 4.679688 -2.207031 5.726562 -1.160156 C 6.777344 -0.0742188 8.273438 0.5625 9.921875 0.5625 C 11.53125 0.5625 12.992188 -0.0742188 14.074219 -1.160156 C 15.125 -2.207031 15.796875 -3.667969 15.796875 -5.316406 L 15.796875 -42.566406 C 15.796875 -44.210938 15.125 -45.671875 14.074219 -46.71875 C 12.992188 -47.769531 11.53125 -48.441406 9.921875 -48.441406 C 8.273438 -48.441406 6.777344 -47.769531 5.726562 -46.71875 C 4.679688 -45.671875 4.042969 -44.210938 4.042969 -42.566406 Z M 4.042969 -5.316406 "/></g></g></g><g fill="#ffc017" fill-opacity="1"><g transform="translate(127.76683, 177.56826)"><g><path d="M 2.285156 -18.121094 C 2.285156 -12.992188 4.378906 -8.3125 7.785156 -4.941406 C 11.195312 -1.574219 15.871094 0.5625 20.964844 0.5625 C 26.09375 0.5625 30.808594 -1.574219 34.179688 -4.941406 C 37.546875 -8.3125 39.644531 -12.992188 39.644531 -18.121094 C 39.644531 -23.210938 37.546875 -27.925781 34.179688 -31.296875 C 30.808594 -34.664062 26.09375 -36.761719 20.964844 -36.761719 C 15.871094 -36.761719 11.195312 -34.664062 7.785156 -31.296875 C 4.378906 -27.925781 2.285156 -23.210938 2.285156 -18.121094 Z M 14.074219 -18.121094 C 14.074219 -20.066406 14.824219 -21.863281 16.058594 -23.171875 C 17.296875 -24.484375 19.019531 -25.308594 20.964844 -25.308594 C 22.910156 -25.308594 24.632812 -24.484375 25.867188 -23.171875 C 27.105469 -21.863281 27.851562 -20.066406 27.851562 -18.121094 C 27.851562 -16.171875 27.105469 -14.339844 25.867188 -13.027344 C 24.632812 -11.679688 22.910156 -10.855469 20.964844 -10.855469 C 19.019531 -10.855469 17.296875 -11.679688 16.058594 -13.027344 C 14.824219 -14.339844 14.074219 -16.171875 14.074219 -18.121094 Z M 14.074219 -18.121094 "/></g></g></g><g fill="#ffc017" fill-opacity="1"><g transform="translate(169.732129, 177.56826)"><g><path d="M 22.574219 4.902344 C 21.226562 4.902344 20.179688 4.753906 19.28125 4.566406 C 18.382812 4.417969 17.59375 4.269531 16.695312 4.15625 C 15.386719 4.117188 14.1875 4.566406 13.289062 5.351562 C 12.390625 6.140625 11.828125 7.300781 11.828125 8.648438 C 11.828125 13.101562 15.910156 15.199219 22.761719 15.199219 C 26.839844 15.199219 31.148438 13.8125 34.367188 10.820312 C 37.585938 7.824219 39.757812 3.21875 39.757812 -3.332031 L 39.757812 -31.859375 C 39.757812 -33.09375 39.53125 -34.328125 38.972656 -35.226562 C 38.371094 -36.125 37.511719 -36.726562 36.3125 -36.726562 C 34.214844 -36.726562 32.417969 -34.703125 31.933594 -31.671875 C 30.546875 -33.019531 28.714844 -34.292969 26.617188 -35.226562 C 24.484375 -36.164062 22.125 -36.761719 19.691406 -36.761719 C 14.601562 -36.761719 10.257812 -34.664062 7.226562 -31.257812 C 4.191406 -27.851562 2.394531 -23.210938 2.394531 -18.082031 C 2.394531 -12.953125 4.191406 -8.273438 7.226562 -4.902344 C 10.257812 -1.535156 14.601562 0.597656 19.691406 0.597656 C 21.789062 0.597656 23.773438 0.0390625 25.417969 -0.785156 C 27.027344 -1.609375 28.226562 -2.695312 28.714844 -3.78125 C 28.902344 -1.199219 28.414062 0.9375 27.367188 2.433594 C 26.316406 3.96875 24.671875 4.867188 22.574219 4.902344 Z M 14.1875 -18.082031 C 14.1875 -20.027344 14.863281 -21.863281 16.058594 -23.171875 C 17.21875 -24.484375 18.867188 -25.308594 20.816406 -25.308594 C 22.761719 -25.308594 24.519531 -24.484375 25.832031 -23.171875 C 27.140625 -21.824219 27.964844 -20.027344 27.964844 -18.082031 C 27.964844 -16.136719 27.179688 -14.300781 25.867188 -12.992188 C 24.558594 -11.644531 22.761719 -10.820312 20.816406 -10.820312 C 18.867188 -10.820312 17.21875 -11.644531 16.058594 -12.992188 C 14.863281 -14.300781 14.1875 -16.136719 14.1875 -18.082031 Z M 14.1875 -18.082031 "/></g></g></g><g fill="#545454" fill-opacity="1"><g transform="translate(214.101545, 177.56826)"><g><path d="M 29.5 -32.792969 C 31.148438 -32.792969 32.53125 -33.09375 33.542969 -33.84375 C 34.554688 -34.589844 35.152344 -35.789062 35.152344 -37.585938 C 35.152344 -39.53125 34.140625 -41.367188 32.53125 -42.902344 C 30.921875 -44.4375 28.75 -45.746094 26.46875 -46.644531 C 24.183594 -47.507812 21.75 -48.03125 19.652344 -48.03125 C 14.523438 -48.03125 10.332031 -46.609375 7.414062 -44.175781 C 4.492188 -41.742188 2.84375 -38.261719 2.84375 -34.105469 C 2.84375 -32.34375 3.144531 -30.773438 3.78125 -29.386719 C 4.980469 -26.65625 7 -24.484375 9.546875 -22.835938 C 12.09375 -21.1875 14.824219 -19.878906 17.371094 -18.792969 C 18.644531 -18.230469 19.765625 -17.707031 20.777344 -17.21875 C 22.722656 -16.171875 24.070312 -15.160156 24.070312 -13.925781 C 24.070312 -12.726562 23.359375 -11.867188 22.347656 -11.304688 C 21.339844 -10.707031 19.992188 -10.40625 18.753906 -10.40625 C 17.558594 -10.40625 16.171875 -10.707031 14.9375 -11.269531 C 13.703125 -11.828125 12.578125 -12.503906 11.867188 -13.363281 C 9.957031 -14.972656 8.3125 -15.835938 6.625 -15.835938 C 4.980469 -15.835938 3.707031 -15.199219 2.84375 -14.1875 C 1.945312 -13.175781 1.535156 -11.753906 1.574219 -10.257812 C 1.835938 -7.863281 3.257812 -5.128906 6.027344 -3.03125 C 8.796875 -0.898438 12.953125 0.636719 18.753906 0.636719 C 22.6875 0.636719 27.140625 -0.5625 30.621094 -2.996094 C 34.105469 -5.390625 36.613281 -8.984375 36.613281 -13.890625 C 36.613281 -15.574219 36.277344 -17.109375 35.640625 -18.457031 C 34.328125 -21.113281 32.195312 -23.285156 29.5 -24.96875 C 26.765625 -26.65625 23.921875 -28.078125 21.226562 -29.3125 C 19.839844 -29.910156 18.644531 -30.511719 17.59375 -31.109375 C 15.5 -32.269531 14.074219 -33.394531 14.074219 -34.851562 C 14.074219 -35.863281 14.710938 -36.6875 15.609375 -37.210938 C 16.507812 -37.734375 17.667969 -37.996094 18.71875 -37.996094 C 20.703125 -37.996094 22.3125 -36.761719 24.371094 -34.816406 C 25.417969 -33.917969 26.28125 -33.394531 27.066406 -33.132812 C 27.851562 -32.832031 28.640625 -32.792969 29.5 -32.792969 Z M 29.5 -32.792969 "/></g></g></g><g fill="#545454" fill-opacity="1"><g transform="translate(252.772514, 177.56826)"><g><path d="M 36.5 -31.296875 C 33.394531 -34.664062 29.011719 -36.761719 23.882812 -36.761719 C 19.054688 -36.761719 15.085938 -34.890625 12.242188 -31.820312 L 11.980469 -32.496094 C 11.117188 -35.300781 9.546875 -36.761719 7.300781 -36.761719 C 5.128906 -36.761719 4.042969 -35.675781 4.042969 -33.542969 L 4.042969 6.550781 C 4.042969 8.234375 4.679688 9.695312 5.726562 10.746094 C 6.777344 11.792969 8.273438 12.429688 9.921875 12.429688 C 11.53125 12.429688 12.992188 11.792969 14.074219 10.746094 C 15.125 9.695312 15.796875 8.234375 15.796875 6.550781 L 15.796875 -2.058594 C 18.269531 -0.410156 21.078125 0.5625 23.882812 0.5625 C 29.011719 0.5625 33.394531 -1.574219 36.5 -4.941406 C 39.609375 -8.3125 41.40625 -12.992188 41.40625 -18.121094 C 41.40625 -23.210938 39.609375 -27.925781 36.5 -31.296875 Z M 27.664062 -13.027344 C 26.429688 -11.679688 24.671875 -10.855469 22.722656 -10.855469 C 20.777344 -10.855469 19.054688 -11.679688 17.820312 -13.027344 C 16.585938 -14.339844 15.835938 -16.171875 15.835938 -18.121094 C 15.835938 -20.066406 16.585938 -21.863281 17.820312 -23.171875 C 19.054688 -24.484375 20.777344 -25.308594 22.722656 -25.308594 C 24.671875 -25.308594 26.429688 -24.484375 27.664062 -23.171875 C 28.902344 -21.863281 29.648438 -20.066406 29.648438 -18.121094 C 29.648438 -16.171875 28.902344 -14.339844 27.664062 -13.027344 Z M 27.664062 -13.027344 "/></g></g></g><g fill="#545454" fill-opacity="1"><g transform="translate(296.459851, 177.56826)"><g><path d="M 2.285156 -18.121094 C 2.285156 -12.992188 4.378906 -8.3125 7.785156 -4.941406 C 11.195312 -1.574219 15.871094 0.5625 20.964844 0.5625 C 26.09375 0.5625 30.808594 -1.574219 34.179688 -4.941406 C 37.546875 -8.3125 39.644531 -12.992188 39.644531 -18.121094 C 39.644531 -23.210938 37.546875 -27.925781 34.179688 -31.296875 C 30.808594 -34.664062 26.09375 -36.761719 20.964844 -36.761719 C 15.871094 -36.761719 11.195312 -34.664062 7.785156 -31.296875 C 4.378906 -27.925781 2.285156 -23.210938 2.285156 -18.121094 Z M 14.074219 -18.121094 C 14.074219 -20.066406 14.824219 -21.863281 16.058594 -23.171875 C 17.296875 -24.484375 19.019531 -25.308594 20.964844 -25.308594 C 22.910156 -25.308594 24.632812 -24.484375 25.867188 -23.171875 C 27.105469 -21.863281 27.851562 -20.066406 27.851562 -18.121094 C 27.851562 -16.171875 27.105469 -14.339844 25.867188 -13.027344 C 24.632812 -11.679688 22.910156 -10.855469 20.964844 -10.855469 C 19.019531 -10.855469 17.296875 -11.679688 16.058594 -13.027344 C 14.824219 -14.339844 14.074219 -16.171875 14.074219 -18.121094 Z M 14.074219 -18.121094 "/></g></g></g><g fill="#545454" fill-opacity="1"><g transform="translate(338.425149, 177.56826)"><g><path d="M 27.066406 -34.816406 C 26.019531 -35.828125 24.59375 -36.464844 22.984375 -36.464844 L 20.703125 -36.464844 L 20.703125 -42.566406 C 20.703125 -44.210938 20.027344 -45.671875 18.980469 -46.71875 C 17.933594 -47.769531 16.472656 -48.441406 14.863281 -48.441406 C 13.175781 -48.441406 11.71875 -47.769531 10.667969 -46.71875 C 9.621094 -45.671875 8.984375 -44.210938 8.984375 -42.566406 L 8.984375 -36.464844 L 6.886719 -36.464844 C 5.242188 -36.464844 3.820312 -35.828125 2.808594 -34.816406 C 1.757812 -33.765625 1.160156 -32.34375 1.160156 -30.699219 C 1.160156 -29.164062 1.757812 -27.742188 2.808594 -26.691406 C 3.820312 -25.644531 5.242188 -25.007812 6.886719 -25.007812 L 8.984375 -25.007812 L 8.984375 -5.316406 C 8.984375 -3.667969 9.621094 -2.207031 10.667969 -1.160156 C 11.71875 -0.0742188 13.175781 0.5625 14.863281 0.5625 C 16.472656 0.5625 17.933594 -0.0742188 18.980469 -1.160156 C 20.027344 -2.207031 20.703125 -3.667969 20.703125 -5.316406 L 20.703125 -25.007812 L 22.984375 -25.007812 C 24.59375 -25.007812 26.019531 -25.644531 27.066406 -26.691406 C 28.078125 -27.742188 28.714844 -29.164062 28.714844 -30.699219 C 28.714844 -32.34375 28.078125 -33.765625 27.066406 -34.816406 Z M 27.066406 -34.816406 "/></g></g></g></svg>